<?xml version="1.0" encoding="utf-8"?>
<!-- Generator: Adobe Illustrator 21.0.2, SVG Export Plug-In . SVG Version: 6.00 Build 0)  -->
<svg version="1.1" id="Layer_1" xmlns="http://www.w3.org/2000/svg" xmlns:xlink="http://www.w3.org/1999/xlink" x="0px" y="0px"
	 viewBox="0 0 34 36" style="enable-background:new 0 0 34 36;" xml:space="preserve">
<style type="text/css">
	.st0{fill:#00B1E7;}
</style>
<path class="st0" d="M33.94,7.94c0-1.27-0.19-2.54-0.52-3.81c-0.47-1.51-1.6-2.73-3.06-3.3c-2.97-1.04-6.17-1.04-9.14,0
	c-1.51,0.57-2.64,1.79-3.06,3.3c-0.71,2.5-0.71,5.13,0,7.63c0.47,1.51,1.6,2.73,3.06,3.3c1.46,0.52,3.01,0.8,4.57,0.75
	c1.55,0,3.11-0.28,4.57-0.75c1.51-0.56,2.64-1.79,3.06-3.3C33.75,10.48,33.94,9.21,33.94,7.94z M29,7.94c0,0.61-0.09,1.27-0.28,1.84
	c-0.24,0.8-0.94,1.41-1.79,1.6c-0.8,0.14-1.6,0.14-2.35,0c-0.85-0.14-1.51-0.75-1.79-1.6c-0.38-1.22-0.38-2.5,0-3.72
	c0.24-0.8,0.94-1.41,1.79-1.6c0.8-0.14,1.6-0.14,2.35,0c0.85,0.14,1.51,0.75,1.79,1.6C28.9,6.66,29,7.32,29,7.94 M15.86,28.61
	c0.71-2.5,0.71-5.13,0-7.63c-0.47-1.51-1.6-2.73-3.06-3.3c-2.97-1.04-6.17-1.04-9.14,0c-1.51,0.57-2.64,1.79-3.06,3.3
	c-0.71,2.5-0.71,5.13,0,7.63c0.47,1.51,1.6,2.73,3.06,3.3c2.97,1.04,6.17,1.04,9.14,0C14.26,31.38,15.44,30.16,15.86,28.61
	 M11.43,24.84c0,0.61-0.09,1.27-0.28,1.84c-0.23,0.8-0.94,1.41-1.79,1.6c-0.8,0.14-1.6,0.14-2.35,0c-0.85-0.14-1.51-0.75-1.79-1.6
	c-0.38-1.22-0.38-2.5,0-3.72c0.24-0.8,0.94-1.41,1.79-1.6c0.8-0.14,1.6-0.14,2.35,0c0.85,0.14,1.51,0.75,1.79,1.6
	C11.34,23.57,11.43,24.18,11.43,24.84 M11.43,7.89h4.94c0-1.27-0.19-2.54-0.52-3.77c-0.47-1.51-1.6-2.73-3.06-3.3
	c-2.97-1.04-6.17-1.04-9.14,0c-1.51,0.57-2.64,1.79-3.06,3.3c-0.71,2.5-0.71,5.13,0,7.63c0.47,1.51,1.6,2.73,3.06,3.3
	c1.46,0.52,3.01,0.75,4.57,0.75s3.11-0.28,4.57-0.75c1.51-0.56,2.64-1.79,3.06-3.3c0.05-0.19,0.09-0.42,0.19-0.66l-4.66-2.17
	c-0.05,0.28-0.09,0.56-0.19,0.85c-0.23,0.8-0.94,1.41-1.79,1.6c-0.8,0.14-1.6,0.14-2.35,0c-0.85-0.14-1.51-0.75-1.79-1.6
	c-0.38-1.22-0.38-2.5,0-3.72c0.24-0.8,0.94-1.41,1.79-1.6c0.8-0.14,1.6-0.14,2.35,0c0.85,0.14,1.51,0.75,1.79,1.6
	C11.34,6.66,11.43,7.28,11.43,7.89 M18.07,21.03c-0.33,1.22-0.52,2.5-0.52,3.81V36h4.94V24.84c0-0.61,0.09-1.27,0.28-1.84
	c0.24-0.8,0.94-1.41,1.79-1.6c0.8-0.14,1.6-0.14,2.35,0c0.85,0.14,1.51,0.75,1.79,1.6c0.38,1.22,0.38,2.5,0,3.72
	c-0.24,0.8-0.94,1.41-1.74,1.6c-0.8,0.14-1.6,0.14-2.35,0c-0.14-0.05-0.33-0.09-0.47-0.14l1.69,4.61c1.55,0,3.11-0.28,4.57-0.75
	c1.51-0.56,2.64-1.79,3.06-3.3c0.71-2.5,0.71-5.13,0-7.63c-0.47-1.51-1.6-2.73-3.06-3.3c-2.97-1.04-6.17-1.04-9.14,0
	C19.67,18.3,18.54,19.52,18.07,21.03"/>
</svg>
